<svg width="44" height="44" viewBox="0 0 44 44" fill="none" xmlns="http://www.w3.org/2000/svg">
<path fill-rule="evenodd" clip-rule="evenodd" d="M4.048 0H39.952C42.196 0 44 1.804 44 4.048V39.952C44 42.196 42.196 44 39.952 44H4.048C1.804 44 0 42.196 0 39.952V4.048C0 1.804 1.804 0 4.048 0Z" fill="#3E3A94"/>
<path d="M32.0765 11.8359L33.7045 7.52385C33.9245 7.03985 33.5725 6.59985 33.0885 6.59985H13.4645C13.2005 6.59985 12.9805 6.77585 12.8485 7.03985L10.6045 12.5399C10.6045 12.5399 10.5605 12.6719 10.5605 12.7599V36.4319C10.5605 37.1359 10.8685 37.4439 11.2205 37.4439H16.4125C16.7645 37.4439 17.0725 37.1359 17.0725 36.7838V25.5639C17.0725 25.2119 17.3805 24.9039 17.7325 24.9039H26.4005C26.6645 24.9039 26.9285 24.7279 27.0165 24.4639L28.7765 20.1959C28.9525 19.7559 28.6445 19.2719 28.1605 19.2719H17.7765C17.4245 19.2719 17.1165 18.9639 17.1165 18.6119V12.9359C17.1165 12.5839 17.4245 12.2759 17.7765 12.2759H31.4605C31.7245 12.2759 31.9445 12.0999 32.0765 11.8359Z" fill="#FDFDFD"/>
</svg>
