<svg width="59" height="52" viewBox="0 0 59 52" fill="none" xmlns="http://www.w3.org/2000/svg">
<g clip-path="url(#clip0_3107_83665)">
<path d="M30.3104 51.4286H4.19794C3.08493 51.4274 2.01784 50.9807 1.23083 50.1865C0.443811 49.3923 0.00115757 48.3155 0 47.1923V4.23625C0.00115757 3.11309 0.443811 2.03626 1.23083 1.24206C2.01784 0.447861 3.08493 0.00116814 4.19794 0H30.3104C55.0761 0 58.7755 16.0735 58.7755 25.6558C58.7755 42.2809 48.6655 51.4286 30.3104 51.4286Z" fill="white"/>
<path d="M30.3104 51.4286H4.19794C3.08493 51.4274 2.01784 50.9807 1.23083 50.1865C0.443811 49.3923 0.00115757 48.3155 0 47.1923V4.23625C0.00115757 3.11309 0.443811 2.03626 1.23083 1.24206C2.01784 0.447861 3.08493 0.00116814 4.19794 0H30.3104C55.0761 0 58.7755 16.0735 58.7755 25.6558C58.7755 42.2809 48.6655 51.4286 30.3104 51.4286ZM4.19794 1.41208C3.45567 1.41267 2.74394 1.71033 2.21888 2.23978C1.69381 2.76922 1.39828 3.48721 1.39713 4.23625V47.1923C1.39828 47.9414 1.69381 48.6594 2.21888 49.1888C2.74394 49.7182 3.45567 50.0159 4.19794 50.0165H30.3104C47.7625 50.0165 57.3762 41.3653 57.3762 25.6558C57.3762 4.5628 40.4183 1.41208 30.3104 1.41208H4.19794Z" fill="black"/>
<path d="M32.3975 5.57275C47.1819 5.57275 53.5928 14.3632 53.5928 25.6753C53.5927 37.4838 47.1819 45.855 32.3975 45.855H16.125V8.39697C16.125 7.64798 16.4216 6.92952 16.9502 6.3999C17.4788 5.87029 18.1958 5.57275 18.9434 5.57275H32.3975ZM18.002 29.5737H21.8555C22.4669 29.5879 23.0744 29.4709 23.6367 29.23C24.1235 29.0134 24.5552 28.6891 24.9004 28.2827C25.247 27.8638 25.5048 27.3785 25.6562 26.856C25.8285 26.2701 25.913 25.661 25.9072 25.0503C25.9199 24.3902 25.8167 23.7329 25.6016 23.1089C25.4196 22.5933 25.1286 22.123 24.749 21.73C24.387 21.361 23.9467 21.0784 23.4609 20.9028C22.9465 20.716 22.4027 20.623 21.8555 20.6274H18.002V29.5737ZM27.2744 29.5737H29.2383V20.6265H27.2744V29.5737ZM30.9941 29.5737H32.833V23.5835H32.8564L36.5713 29.5737H38.5361V20.6265H36.6973V26.6304H36.6729L32.9453 20.6265H30.9941V29.5737ZM21.3555 22.2817C21.7715 22.2699 22.1859 22.3395 22.5752 22.4868C22.8871 22.6131 23.1611 22.8185 23.3701 23.0825C23.582 23.3584 23.7322 23.677 23.8105 24.0161C23.9008 24.4172 23.9444 24.8277 23.9404 25.2388C23.9521 25.664 23.8899 26.0881 23.7559 26.4917C23.6499 26.8019 23.4794 27.0862 23.2559 27.3257C23.0571 27.5319 22.8122 27.6887 22.542 27.7827C22.2767 27.8751 21.9977 27.9219 21.7168 27.9214H19.9551V22.2817H21.3555Z" fill="#00B0F0"/>
<path d="M8.72518 31.2239C9.57737 31.2239 10.3946 31.5633 10.9972 32.1675C11.5998 32.7716 11.9383 33.5911 11.9383 34.4455V45.9178C10.2334 45.9178 8.59824 45.2387 7.39265 44.0299C6.18706 42.8212 5.50977 41.1817 5.50977 39.4723V34.4455C5.50977 34.0222 5.59295 33.6031 5.75457 33.2121C5.91619 32.8211 6.15307 32.4658 6.45168 32.1667C6.75029 31.8675 7.10477 31.6302 7.49487 31.4685C7.88497 31.3067 8.30304 31.2236 8.72518 31.2239Z" fill="black"/>
<path d="M8.72445 29.3876C11.0069 29.3876 12.8571 27.5374 12.8571 25.255C12.8571 22.9726 11.0069 21.1223 8.72445 21.1223C6.44205 21.1223 4.5918 22.9726 4.5918 25.255C4.5918 27.5374 6.44205 29.3876 8.72445 29.3876Z" fill="black"/>
</g>
<defs>
<clipPath id="clip0_3107_83665">
<rect width="58.7755" height="51.4286" fill="white"/>
</clipPath>
</defs>
</svg>
