<svg width="59" height="35" viewBox="0 0 59 35" fill="none" xmlns="http://www.w3.org/2000/svg">
<path d="M33.3223 0.529785H38.8546C52.5101 0.529785 58.2913 7.97043 58.2913 17.3457C58.2913 26.7209 52.5101 34.1709 38.8546 34.1709H33.3223V0.529785Z" fill="#0060E6"/>
<path d="M29.1828 34.1717C28.353 23.792 22.1845 19.4485 14.596 19.4485C7.00758 19.4485 0.829843 23.792 0 34.1717H29.1828Z" fill="#0060E6"/>
<path d="M22.6464 8.14753C22.6464 9.75896 22.1727 11.3342 21.2852 12.674C20.3977 14.0139 19.1362 15.0582 17.6603 15.6748C16.1844 16.2915 14.5603 16.4529 12.9935 16.1385C11.4267 15.8241 9.98752 15.0481 8.85791 13.9087C7.7283 12.7692 6.95905 11.3175 6.6474 9.73703C6.33574 8.15656 6.49567 6.51836 7.10701 5.02959C7.71835 3.54083 8.75361 2.26836 10.0819 1.3731C11.4102 0.477837 12.9718 0 14.5693 0C16.7115 0 18.7659 0.858388 20.2807 2.38634C21.7954 3.9143 22.6464 5.98667 22.6464 8.14753Z" fill="#0060E6"/>
</svg>
