<svg width="33" height="33" viewBox="0 0 33 33" fill="none" xmlns="http://www.w3.org/2000/svg">
<ellipse cx="16.5002" cy="16.5" rx="16.5002" ry="16.5" fill="#0060E6"/>
<path d="M11.0576 17.2817C13.9612 17.2818 16.3211 18.9263 16.6387 22.856H5.47266C5.79024 18.9262 8.15403 17.2817 11.0576 17.2817ZM20.3066 10.146C25.4973 10.1461 27.6953 12.9577 27.6953 16.4995C27.6952 20.0412 25.4971 22.8558 20.3066 22.856H18.2031V10.146H20.3066ZM11 10.0347C11.8144 10.0347 12.596 10.3581 13.1719 10.9331C13.7475 11.5079 14.0712 12.2873 14.0713 13.1001C14.0713 13.7065 13.8911 14.3 13.5537 14.8042C13.2163 15.3082 12.7367 15.7011 12.1758 15.9331C11.6147 16.1651 10.997 16.2262 10.4014 16.1079C9.80569 15.9896 9.25856 15.6968 8.8291 15.2681C8.39974 14.8393 8.10675 14.2934 7.98828 13.6987C7.8698 13.104 7.9307 12.4874 8.16309 11.9272C8.39546 11.3671 8.7891 10.8881 9.29395 10.5513C9.7988 10.2145 10.3928 10.0348 11 10.0347Z" fill="white"/>
</svg>
