<svg width="45" height="29" viewBox="0 0 45 29" fill="none" xmlns="http://www.w3.org/2000/svg">
<path d="M10.084 4.03408H2.0168C0.941172 4.03408 0 3.09291 0 2.01728C0 0.94166 0.941172 0.000488281 2.0168 0.000488281H10.084C11.1596 0.000488281 12.1008 0.94166 12.1008 2.01728C12.1008 3.09291 11.1596 4.03408 10.084 4.03408Z" fill="#39134C"/>
<path d="M10.084 20.1684H2.0168C0.941172 20.1684 0 19.2272 0 18.1516C0 17.0759 0.941172 16.1348 2.0168 16.1348H10.084C11.1596 16.1348 12.1008 17.0759 12.1008 18.1516C12.1008 19.2272 11.1596 20.1684 10.084 20.1684Z" fill="#39134C"/>
<path d="M10.084 28.2357H2.0168C0.941172 28.2357 0 27.2946 0 26.2189C0 25.1433 0.941172 24.2021 2.0168 24.2021H10.084C11.1596 24.2021 12.1008 25.1433 12.1008 26.2189C12.1008 27.2946 11.1596 28.2357 10.084 28.2357Z" fill="#39134C"/>
<path d="M26.2188 12.101H18.1516C17.0759 12.101 16.1348 11.1598 16.1348 10.0842C16.1348 9.00855 17.0759 8.06738 18.1516 8.06738H26.2188C27.2944 8.06738 28.2355 9.00855 28.2355 10.0842C28.2355 11.1598 27.2944 12.101 26.2188 12.101Z" fill="#39134C"/>
<path d="M26.2188 20.1684H18.1516C17.0759 20.1684 16.1348 19.2272 16.1348 18.1516C16.1348 17.0759 17.0759 16.1348 18.1516 16.1348H26.2188C27.2944 16.1348 28.2355 17.0759 28.2355 18.1516C28.2355 19.2272 27.2944 20.1684 26.2188 20.1684Z" fill="#39134C"/>
<path d="M42.3516 4.03359H34.2844C33.2088 4.03359 32.2676 3.09242 32.2676 2.0168C32.2676 0.941172 33.2088 0 34.2844 0H42.3516C43.4272 0 44.3684 0.941172 44.3684 2.0168C44.3684 3.09242 43.4272 4.03359 42.3516 4.03359Z" fill="#39134C"/>
<path d="M42.3516 12.101H34.2844C33.2088 12.101 32.2676 11.1598 32.2676 10.0842C32.2676 9.00855 33.2088 8.06738 34.2844 8.06738H42.3516C43.4272 8.06738 44.3684 9.00855 44.3684 10.0842C44.3684 11.1598 43.4272 12.101 42.3516 12.101Z" fill="#39134C"/>
<path d="M42.3516 28.2357H34.2844C33.2088 28.2357 32.2676 27.2946 32.2676 26.2189C32.2676 25.1433 33.2088 24.2021 34.2844 24.2021H42.3516C43.4272 24.2021 44.3684 25.1433 44.3684 26.2189C44.3684 27.2946 43.4272 28.2357 42.3516 28.2357Z" fill="#39134C"/>
</svg>
