<svg width="48" height="48" viewBox="0 0 48 48" fill="none" xmlns="http://www.w3.org/2000/svg">
<g clip-path="url(#clip0_3107_83651)">
<path d="M6.60156 24.0178C6.60156 33.1097 13.5296 40.5002 22.3796 41.4138V35.218C16.9535 34.3502 12.799 29.6857 12.799 24.0178C12.799 18.3483 16.9535 13.6838 22.3796 12.816V6.62183C13.5296 7.53379 6.60156 14.9259 6.60156 24.0178Z" fill="url(#paint0_linear_3107_83651)"/>
<path d="M25.6211 12.8158C31.0455 13.6836 35.2033 18.348 35.2033 24.0176C35.2033 29.6855 31.0455 34.3499 25.6211 35.2178V41.4136C34.4711 40.5 41.3991 33.1095 41.3991 24.0176C41.3991 14.9257 34.4711 7.53355 25.6211 6.62158V12.8158Z" fill="url(#paint1_linear_3107_83651)"/>
<path d="M47.9824 41.1832V6.81678C47.9824 6.81678 47.9824 0 41.1654 0H6.79944C6.79944 0 -0.0175781 0 -0.0175781 6.81678V41.1832C-0.0175781 41.1832 -0.0175781 48 6.79944 48H41.1654C41.1654 48 47.9824 48 47.9824 41.1832ZM46.555 40.8909C46.555 46.571 40.8747 46.571 40.8747 46.571H7.09015C1.40985 46.571 1.40985 40.8909 1.40985 40.8909V7.10912C1.40985 1.42901 7.09015 1.42901 7.09015 1.42901H40.8747C46.555 1.42901 46.555 7.10912 46.555 7.10912V40.8909Z" fill="#5489C2"/>
</g>
<defs>
<linearGradient id="paint0_linear_3107_83651" x1="6.60205" y1="41.4146" x2="6.60205" y2="6.62036" gradientUnits="userSpaceOnUse">
<stop stop-color="#58AB27"/>
<stop offset="0.780197" stop-color="#93C36C"/>
<stop offset="1" stop-color="#93C36C"/>
</linearGradient>
<linearGradient id="paint1_linear_3107_83651" x1="25.621" y1="6.62013" x2="25.621" y2="41.4143" gradientUnits="userSpaceOnUse">
<stop stop-color="#88BCE2"/>
<stop offset="1" stop-color="#5489C2"/>
</linearGradient>
<clipPath id="clip0_3107_83651">
<rect width="48" height="48" fill="white"/>
</clipPath>
</defs>
</svg>
