<svg width="49" height="46" viewBox="0 0 49 46" fill="none" xmlns="http://www.w3.org/2000/svg">
<path d="M15.2768 24.0036L17.2733 11.2064H15.0936C14.0954 11.2064 12.7858 10.6636 12.3736 9.6148C12.2363 9.2468 11.9615 8.0232 13.6466 6.8364C14.2327 6.4224 14.6449 5.9716 14.6907 5.6036C14.7383 5.43425 14.7378 5.25489 14.6893 5.0858C14.6407 4.91671 14.546 4.76465 14.4159 4.6468C14.0954 4.3248 13.3719 4.104 12.4652 4.104C10.9266 4.104 9.83683 5.0148 9.74524 5.6496C9.65366 6.1464 10.0658 6.5144 10.3772 6.7444C11.3296 7.4712 11.5586 8.52 10.9633 9.5228C10.3314 10.5256 9.01259 11.2064 7.61139 11.2064H5.38596C5.2028 12.4392 2.20808 31.566 1.98828 33.0656H13.9672C14.0129 32.4308 14.5533 28.7876 15.2768 24.0036Z" fill="#1D1D1B"/>
<path d="M31.283 0H19.1302L17.5 10.3408H19.5881C20.7237 10.3408 21.8135 9.844 22.2622 9.062C22.3996 8.832 22.4912 8.602 22.4912 8.4272C22.4912 8.0132 22.2165 7.6544 21.9051 7.4704C21.09 6.8816 20.9526 6.2376 20.9526 5.7868V5.5568C21.1358 4.462 22.5828 3.2752 24.5335 3.2752C25.7149 3.2752 26.5757 3.5512 27.1161 4.048C27.3443 4.2669 27.5136 4.54036 27.6081 4.84284C27.7026 5.14532 27.7192 5.46692 27.6564 5.7776C27.4732 6.5504 26.7039 7.1852 26.2552 7.5072C25.0738 8.326 25.2112 9.0528 25.3028 9.2828C25.5317 9.9176 26.4842 10.3316 27.2076 10.3316H30.3855C34.6899 10.3776 37.0069 12.3372 36.2376 16.9832C35.5599 21.2612 32.2904 23.1288 28.3982 23.1748L26.7681 33.0556H29.0393C38.692 33.0556 46.5405 26.818 48.1249 17.02C50.0481 4.876 42.3461 0 31.283 0Z" fill="#1D1D1B"/>
<path d="M1.31878 37.4814H6.21839C8.30645 37.4814 8.80099 38.5302 8.66362 39.533C8.52625 40.3058 8.03171 40.9038 7.07926 41.2626C8.26066 41.7226 8.70941 42.4034 8.52625 43.4982C8.29729 44.869 7.12505 45.8626 5.57732 45.8626H0L1.31878 37.4814ZM4.53329 40.9866C5.48574 40.9866 5.93449 40.4898 6.02607 39.8918C6.11765 39.257 5.84291 38.797 4.89046 38.797H4.02959L3.66326 40.9866H4.53329ZM3.99296 44.6298C4.9912 44.6298 5.53153 44.2158 5.6689 43.397C5.76048 42.7162 5.39416 42.2562 4.44171 42.2562H3.48926L3.12293 44.6206H3.99296V44.6298Z" fill="#1D1D1B"/>
<path d="M15.3221 45.9537C14.0492 46.0457 13.4172 45.9077 13.1425 45.3649C12.4752 45.7832 11.7036 46.0032 10.9171 45.9997C9.47008 45.9997 8.96638 45.2729 9.10375 44.4081C9.14954 43.9941 9.3785 43.6353 9.78145 43.3133C10.5507 42.6325 12.5472 42.5405 13.3165 41.9885C13.3623 41.3997 13.1333 41.1697 12.4099 41.1697C11.549 41.1697 10.8713 41.4457 9.64408 42.2645L9.91883 40.3509C10.9629 39.5781 11.9611 39.2561 13.1333 39.2561C14.6261 39.2561 15.9449 39.8449 15.6702 41.4917L15.3954 43.3593C15.3038 43.9941 15.3038 44.2241 16.0273 44.2241L15.3221 45.9537ZM13.1517 43.0833C12.474 43.4973 11.201 43.4513 11.0636 44.3161C11.0178 44.7301 11.2468 45.0429 11.6497 45.0429C12.1104 45.0212 12.5539 44.8609 12.9227 44.5829C12.8769 44.4449 12.9227 44.2609 12.9685 43.9941L13.1517 43.0833Z" fill="#1D1D1B"/>
<path d="M17.7315 39.3938H20.2683L20.131 40.2586C20.946 39.5778 21.5322 39.3018 22.3564 39.3018C23.7576 39.3018 24.4445 40.1666 24.2155 41.6202L23.5286 45.9074H20.9918L21.5322 42.3562C21.6238 41.7214 21.4406 41.3994 20.946 41.3994C20.5339 41.3994 20.1768 41.6294 19.8104 42.0802L19.2243 45.8614H16.6875L17.7315 39.3938Z" fill="#1D1D1B"/>
<path d="M26.2031 37.4814H28.749L28.1171 41.6214L30.5623 39.3858H33.6944L30.5623 42.1642L33.0534 45.9086H29.8389L27.8882 42.9002H27.8424L27.3845 45.9086H24.8477L26.2031 37.4814Z" fill="#1D1D1B"/>
<path d="M1.31878 37.4814H6.21839C8.30645 37.4814 8.80099 38.5302 8.66362 39.533C8.52625 40.3058 8.03171 40.9038 7.07926 41.2626C8.26066 41.7226 8.70941 42.4034 8.52625 43.4982C8.29729 44.869 7.12505 45.8626 5.57732 45.8626H0L1.31878 37.4814ZM4.53329 40.9866C5.48574 40.9866 5.93449 40.4898 6.02607 39.8918C6.11765 39.257 5.84291 38.797 4.89046 38.797H4.02959L3.66326 40.9866H4.53329ZM3.99296 44.6298C4.9912 44.6298 5.53153 44.2158 5.6689 43.397C5.76048 42.7162 5.39416 42.2562 4.44171 42.2562H3.48926L3.12293 44.6206H3.99296V44.6298Z" fill="#1D1D1B"/>
<path d="M15.3221 45.9537C14.0492 46.0457 13.4172 45.9077 13.1425 45.3649C12.4752 45.7832 11.7036 46.0032 10.9171 45.9997C9.47008 45.9997 8.96638 45.2729 9.10375 44.4081C9.14954 43.9941 9.3785 43.6353 9.78145 43.3133C10.5507 42.6325 12.5472 42.5405 13.3165 41.9885C13.3623 41.3997 13.1333 41.1697 12.4099 41.1697C11.549 41.1697 10.8713 41.4457 9.64408 42.2645L9.91883 40.3509C10.9629 39.5781 11.9611 39.2561 13.1333 39.2561C14.6261 39.2561 15.9449 39.8449 15.6702 41.4917L15.3954 43.3593C15.3038 43.9941 15.3038 44.2241 16.0273 44.2241L15.3221 45.9537ZM13.1517 43.0833C12.474 43.4973 11.201 43.4513 11.0636 44.3161C11.0178 44.7301 11.2468 45.0429 11.6497 45.0429C12.1104 45.0212 12.5539 44.8609 12.9227 44.5829C12.8769 44.4449 12.9227 44.2609 12.9685 43.9941L13.1517 43.0833Z" fill="#1D1D1B"/>
<path d="M17.7315 39.3938H20.2683L20.131 40.2586C20.946 39.5778 21.5322 39.3018 22.3564 39.3018C23.7576 39.3018 24.4445 40.1666 24.2155 41.6202L23.5286 45.9074H20.9918L21.5322 42.3562C21.6238 41.7214 21.4406 41.3994 20.946 41.3994C20.5339 41.3994 20.1768 41.6294 19.8104 42.0802L19.2243 45.8614H16.6875L17.7315 39.3938Z" fill="#1D1D1B"/>
<path d="M26.2031 37.4814H28.749L28.1171 41.6214L30.5623 39.3858H33.6944L30.5623 42.1642L33.0534 45.9086H29.8389L27.8882 42.9002H27.8424L27.3845 45.9086H24.8477L26.2031 37.4814Z" fill="#1D1D1B"/>
<path d="M35.184 37.4814H38.1329L36.8142 45.8626H33.8652L35.184 37.4814Z" fill="#1D1D1B"/>
<path d="M39.5347 37.4814H43.7017C46.9162 37.4814 47.8686 39.8458 47.5573 41.8054C47.2825 43.719 45.7439 45.9086 42.9324 45.9086H38.2617L39.5347 37.4814ZM42.2547 43.903C43.6559 43.903 44.4801 43.2222 44.6999 41.7134C44.8831 40.6186 44.5168 39.5238 42.9782 39.5238H42.1631L41.4854 43.9398L42.2547 43.903Z" fill="#1D1D1B"/>
</svg>
