<svg width="48" height="48" viewBox="0 0 48 48" fill="none" xmlns="http://www.w3.org/2000/svg">
<rect width="48" height="48" rx="24" fill="#FF5B24"/>
<path d="M24.7235 30.0812C28.8007 30.0812 31.1147 28.0977 33.3186 25.2327C34.5307 23.69 36.0734 23.3594 37.1753 24.241C38.2772 25.1225 38.3874 26.7754 37.1753 28.3181C33.9797 32.5054 29.9026 35.0399 24.7235 35.0399C19.1037 35.0399 14.145 31.9545 10.729 26.555C9.7373 25.1225 9.95769 23.5798 11.0596 22.8085C12.1615 22.0371 13.8144 22.3677 14.8062 23.9104C17.2304 27.5467 20.5362 30.0812 24.7235 30.0812ZM32.3268 16.5275C32.3268 18.5109 30.7841 19.8333 29.0211 19.8333C27.258 19.8333 25.7153 18.5109 25.7153 16.5275C25.7153 14.544 27.258 13.2217 29.0211 13.2217C30.7841 13.2217 32.3268 14.6542 32.3268 16.5275Z" fill="white"/>
</svg>
