<svg width="43" height="38" viewBox="0 0 43 38" fill="none" xmlns="http://www.w3.org/2000/svg">
<path d="M19.9218 13.7927C20.2673 13.2891 20.6436 13.2255 20.9491 13.2255C21.2545 13.2255 21.7618 13.2891 22.1073 13.7927C24.8164 17.4836 29.2891 24.8382 32.5891 30.2655C34.7418 33.8018 36.3945 36.52 36.7345 36.8655C38.0073 38.1636 39.7527 37.3545 40.7673 35.8818C41.7655 34.4327 42.0418 33.4145 42.0418 32.3291C42.0418 31.5891 27.5727 4.89818 26.1164 2.67636C24.7164 0.54 24.2582 0 21.8618 0H20.0655C17.6745 0 17.3291 0.54 15.9273 2.67636C14.4709 4.89818 0 31.5891 0 32.3273C0 33.4145 0.278182 34.4327 1.27818 35.8818C2.29273 37.3545 4.03818 38.1636 5.31091 36.8636C5.64909 36.5182 7.30182 33.8018 9.45455 30.2636C12.7545 24.8382 17.2127 17.4836 19.9236 13.7909L19.9218 13.7927Z" fill="black"/>
</svg>
