<svg width="33" height="44" viewBox="0 0 33 44" fill="none" xmlns="http://www.w3.org/2000/svg">
<path d="M0 35.5147L0.266051 35.142L12.8671 11.2325L12.8934 10.979L7.33898 0.546591C6.87339 -0.326858 5.56322 -0.105986 5.41137 0.871625L0 35.5147Z" fill="#FFC24A"/>
<path fill-rule="evenodd" clip-rule="evenodd" d="M0.15625 35.2302L0.358298 34.8374L12.8263 11.1789L7.28565 0.703815C6.82508 -0.160849 5.65547 0.060023 5.50487 1.02759L0.15625 35.2302Z" fill="#FFA712"/>
<path d="M16.9429 18.8716L21.0792 14.6361L16.9429 6.73868C16.5501 5.99073 15.4532 5.98947 15.0654 6.73868L12.8555 10.9541V11.313L16.9441 18.8716H16.9429Z" fill="#F4BD62"/>
<path fill-rule="evenodd" clip-rule="evenodd" d="M16.8683 18.6948L20.8892 14.5773L16.8683 6.92081C16.4868 6.19419 15.5594 6.11764 15.1816 6.84677L12.9591 11.1274L12.8926 11.3458L16.8683 18.6948Z" fill="#FFA50E"/>
<path d="M0 35.5148L0.120476 35.393L0.55971 35.2148L16.6834 19.1514L16.8867 18.5954L12.8646 10.9302L0 35.5148Z" fill="#F6820C"/>
<path d="M17.4589 43.6156L32.0503 35.4773L27.8839 9.81467C27.7533 9.01149 26.7682 8.69399 26.1934 9.27002L0 35.5149L14.5085 43.6156C15.4259 44.1277 16.5416 44.1277 17.4589 43.6156Z" fill="#FDE068"/>
<path d="M31.92 35.4089L27.7849 9.94081C27.6557 9.14392 26.8362 8.81386 26.2664 9.38612L0.162109 35.4641L14.5113 43.4845C15.4211 43.9928 16.5292 43.9928 17.4391 43.4845L31.92 35.4076V35.4089Z" fill="#FCCA3F"/>
<path d="M17.4589 43.3756C16.5416 43.8877 15.4247 43.8864 14.5085 43.3756L0.116711 35.3903L0 35.5146L14.5085 43.6153C15.4259 44.1273 16.5416 44.1273 17.4589 43.6153L32.0503 35.4769L32.0152 35.2573L17.4589 43.3756Z" fill="#EEAB37"/>
</svg>
