<svg width="70" height="43" viewBox="0 0 70 43" fill="none" xmlns="http://www.w3.org/2000/svg">
<path d="M34.5735 42.8057C34.3364 42.8057 34.1152 42.7425 33.9098 42.6319L31.8082 41.3836C31.4922 41.2098 31.6502 41.1466 31.745 41.115C32.1717 40.9728 32.2507 40.9412 32.6931 40.6883C32.7405 40.6567 32.8037 40.6726 32.8511 40.7042L34.4629 41.668C34.5261 41.6996 34.6051 41.6996 34.6525 41.668L40.9572 38.0179C41.0204 37.9863 41.052 37.9231 41.052 37.8441V30.5597C41.052 30.4807 41.0204 30.4175 40.9572 30.3859L34.6525 26.7516C34.5893 26.72 34.5103 26.72 34.4629 26.7516L28.1581 30.3859C28.0949 30.4175 28.0633 30.4965 28.0633 30.5597V37.8441C28.0633 37.9073 28.0949 37.9863 28.1581 38.0179L29.8805 39.0134C30.8127 39.4874 31.3974 38.9344 31.3974 38.3814V31.1917C31.3974 31.0969 31.4764 31.0021 31.587 31.0021H32.3929C32.4877 31.0021 32.5825 31.0811 32.5825 31.1917V38.3814C32.5825 39.6297 31.903 40.3565 30.7179 40.3565C30.3545 40.3565 30.0701 40.3565 29.2642 39.9615L27.6051 39.0134C27.1942 38.7764 26.9414 38.334 26.9414 37.8599V30.5755C26.9414 30.1014 27.1942 29.659 27.6051 29.422L33.9098 25.7719C34.3048 25.5507 34.8421 25.5507 35.2371 25.7719L41.5419 29.422C41.9527 29.659 42.2055 30.1014 42.2055 30.5755V37.8599C42.2055 38.334 41.9527 38.7764 41.5419 39.0134L35.2371 42.6635C35.0317 42.7583 34.7947 42.8057 34.5735 42.8057ZM36.517 37.7967C33.7518 37.7967 33.1829 36.5326 33.1829 35.4581C33.1829 35.3633 33.2619 35.2685 33.3726 35.2685H34.1942C34.289 35.2685 34.368 35.3317 34.368 35.4265C34.4945 36.264 34.8579 36.6748 36.5328 36.6748C37.8601 36.6748 38.429 36.3746 38.429 35.6635C38.429 35.2527 38.271 34.9525 36.201 34.747C34.4787 34.5732 33.4042 34.194 33.4042 32.8193C33.4042 31.5394 34.4787 30.7809 36.28 30.7809C38.3026 30.7809 39.2981 31.4762 39.4245 32.9931C39.4245 33.0405 39.4087 33.0879 39.3771 33.1353C39.3455 33.1669 39.2981 33.1985 39.2507 33.1985H38.429C38.35 33.1985 38.271 33.1353 38.2552 33.0563C38.0656 32.1872 37.5757 31.9028 36.28 31.9028C34.8263 31.9028 34.6525 32.4084 34.6525 32.7877C34.6525 33.2459 34.8579 33.3881 36.8173 33.6409C38.7608 33.8938 39.6773 34.2572 39.6773 35.6161C39.6615 37.0066 38.5238 37.7967 36.517 37.7967Z" fill="#539E43"/>
<path d="M15.0113 14.3162C15.0113 14.0318 14.8533 13.7631 14.6005 13.6209L7.90068 9.76539C7.79007 9.70219 7.66366 9.67059 7.53725 9.65479H7.47404C7.34763 9.65479 7.22122 9.70219 7.11061 9.76539L0.410835 13.6209C0.158014 13.7631 0 14.0318 0 14.3162L0.0158014 24.6819C0.0158014 24.8241 0.0948081 24.9663 0.221219 25.0295C0.34763 25.1085 0.505643 25.1085 0.616253 25.0295L4.59819 22.7541C4.85102 22.6119 5.00903 22.3433 5.00903 22.0588V17.2078C5.00903 16.9234 5.16704 16.6548 5.41987 16.5126L7.11061 15.5329C7.23702 15.4539 7.37923 15.4223 7.52145 15.4223C7.66366 15.4223 7.80587 15.4539 7.91648 15.5329L9.60723 16.5126C9.86005 16.6548 10.0181 16.9234 10.0181 17.2078V22.0588C10.0181 22.3433 10.1761 22.6119 10.4289 22.7541L14.4108 25.0295C14.5372 25.1085 14.6953 25.1085 14.8217 25.0295C14.9481 24.9663 15.0271 24.8241 15.0271 24.6819L15.0113 14.3162Z" fill="#333333"/>
<path d="M47.2142 0.0474041C47.0878 -0.0158014 46.9298 -0.0158014 46.8192 0.0474041C46.6928 0.126411 46.6138 0.252822 46.6138 0.395034V10.6659C46.6138 10.7607 46.5664 10.8555 46.4715 10.9187C46.3767 10.9661 46.2819 10.9661 46.1871 10.9187L44.5122 9.95485C44.2594 9.81264 43.9591 9.81264 43.7063 9.95485L37.0065 13.8262C36.7537 13.9684 36.5957 14.237 36.5957 14.5214V22.2483C36.5957 22.5327 36.7537 22.8014 37.0065 22.9436L43.7063 26.8149C43.9591 26.9571 44.2594 26.9571 44.5122 26.8149L51.212 22.9436C51.4648 22.8014 51.6228 22.5327 51.6228 22.2483V2.98646C51.6228 2.68623 51.4648 2.41761 51.212 2.27539L47.2142 0.0474041ZM46.598 19.7043C46.598 19.7833 46.5664 19.8465 46.5032 19.8781L44.212 21.2054C44.1487 21.237 44.0697 21.237 44.0065 21.2054L41.7153 19.8781C41.6521 19.8465 41.6205 19.7675 41.6205 19.7043V17.0497C41.6205 16.9707 41.6521 16.9074 41.7153 16.8758L44.0065 15.5485C44.0697 15.5169 44.1487 15.5169 44.212 15.5485L46.5032 16.8758C46.5664 16.9074 46.598 16.9865 46.598 17.0497V19.7043Z" fill="#333333"/>
<path d="M69.5103 16.9865C69.7631 16.8443 69.9053 16.5757 69.9053 16.2912V14.4109C69.9053 14.1264 69.7473 13.8578 69.5103 13.7156L62.8579 9.86008C62.6051 9.71786 62.3048 9.71786 62.052 9.86008L55.3522 13.7314C55.0994 13.8736 54.9414 14.1422 54.9414 14.4267V22.1535C54.9414 22.438 55.0994 22.7066 55.3522 22.8488L62.0046 26.6411C62.2574 26.7833 62.5577 26.7833 62.7947 26.6411L66.824 24.3973C66.9504 24.3341 67.0294 24.1919 67.0294 24.0497C67.0294 23.9075 66.9504 23.7653 66.824 23.7021L60.0926 19.8307C59.9662 19.7517 59.8872 19.6253 59.8872 19.4831V17.0655C59.8872 16.9233 59.9662 16.7811 60.0926 16.7179L62.1942 15.517C62.3206 15.438 62.4787 15.438 62.6051 15.517L64.7066 16.7179C64.8331 16.7969 64.9121 16.9233 64.9121 17.0655V18.9617C64.9121 19.1039 64.9911 19.2461 65.1175 19.3093C65.2439 19.3883 65.4019 19.3883 65.5283 19.3093L69.5103 16.9865Z" fill="#333333"/>
<path d="M62.3531 16.6233C62.4005 16.5917 62.4637 16.5917 62.5111 16.6233L63.791 17.366C63.8384 17.3976 63.87 17.445 63.87 17.5082V18.9935C63.87 19.0567 63.8384 19.1041 63.791 19.1357L62.5111 19.8784C62.4637 19.91 62.4005 19.91 62.3531 19.8784L61.0731 19.1357C61.0257 19.1041 60.9941 19.0567 60.9941 18.9935V17.5082C60.9941 17.445 61.0257 17.3976 61.0731 17.366L62.3531 16.6233Z" fill="#539E43"/>
<path d="M26.2146 9.89182C25.9618 9.7496 25.6616 9.7496 25.4087 9.89182L18.7564 13.7315C18.5035 13.8738 18.3613 14.1424 18.3613 14.4268V22.1221C18.3613 22.4065 18.5193 22.6751 18.7564 22.8173L25.4087 26.657C25.6616 26.7993 25.9618 26.7993 26.2146 26.657L32.867 22.8173C33.1198 22.6751 33.262 22.4065 33.262 22.1221V14.4268C33.262 14.1424 33.104 13.8738 32.867 13.7315L26.2146 9.89182Z" fill="url(#paint0_linear_629_16840)"/>
<defs>
<linearGradient id="paint0_linear_629_16840" x1="1034.42" y1="306.686" x2="305.224" y2="1452.41" gradientUnits="userSpaceOnUse">
<stop stop-color="#41873F"/>
<stop offset="0.3288" stop-color="#418B3D"/>
<stop offset="0.6352" stop-color="#419637"/>
<stop offset="0.9319" stop-color="#3FA92D"/>
<stop offset="1" stop-color="#3FAE2A"/>
</linearGradient>
</defs>
</svg>
