<svg width="69" height="24" viewBox="0 0 69 24" fill="none" xmlns="http://www.w3.org/2000/svg">
<path d="M8.68112 5.88232C3.88836 5.88064 0.00168062 9.76441 6.19847e-07 14.5571C-0.00179138 19.3497 3.8822 23.2366 8.6749 23.2382C13.4676 23.24 17.3543 19.3562 17.356 14.5634C17.356 9.77141 13.473 5.8858 8.68112 5.88232ZM8.68112 18.9008C6.28387 18.9008 4.34056 16.9574 4.34056 14.5603C4.34056 12.1631 6.28387 10.2197 8.68112 10.2197C11.0783 10.2197 13.0217 12.1631 13.0217 14.5603C13.0217 14.5614 13.0217 14.5623 13.0217 14.5634C13.0199 16.9594 11.0772 18.9008 8.68112 18.9008Z" fill="#0A7EC2"/>
<path d="M23.9334 17.4729C23.9285 17.0543 24.2638 16.711 24.6824 16.7062C24.8909 16.7038 25.0913 16.7874 25.2361 16.9374C27.4003 19.1514 30.9891 22.9378 31.0111 22.9596C31.0893 23.0606 31.1999 23.1313 31.3243 23.1601C31.4452 23.1887 31.5695 23.2011 31.6937 23.1977H35.6084C36.0286 23.1879 36.3611 22.8394 36.3514 22.4191C36.3477 22.2576 36.2926 22.1014 36.1941 21.9733L29.7145 15.3245L29.3764 14.9705C28.631 14.0718 28.7187 13.7429 29.5705 12.8504L34.7252 7.10072C34.9915 6.76887 34.9387 6.28396 34.6069 6.01768C34.4699 5.9077 34.2997 5.84783 34.124 5.84794H30.5664C30.4516 5.84834 30.3376 5.86631 30.2283 5.90137C30.095 5.93716 29.9753 6.01113 29.8837 6.11422L25.2676 11.1062C24.9733 11.4157 24.4836 11.4282 24.1739 11.1338C24.0229 10.9903 23.9362 10.7917 23.9334 10.5832V0.715042C23.9375 0.324218 23.6237 0.00406565 23.233 8.96465e-05C23.2179 -2.23535e-05 23.2031 0.000201551 23.188 0.00104155H20.2788C19.8971 -0.0197344 19.5707 0.27281 19.55 0.654449C19.5495 0.664137 19.5491 0.673994 19.549 0.683682V22.5273C19.5418 22.8923 19.8318 23.1938 20.1967 23.2009C20.224 23.2016 20.2514 23.2004 20.2787 23.1975H23.1818C23.5766 23.2034 23.9068 22.8992 23.9334 22.5055V17.4729Z" fill="#0A7EC2"/>
<path d="M47.602 22.4149L47.2888 19.5086C47.2477 19.1268 46.9048 18.8509 46.5229 18.892C46.5089 18.8936 46.4949 18.8955 46.4809 18.8978C44.1129 19.2716 41.8904 17.6548 41.5168 15.287C41.4937 15.1407 41.4781 14.9934 41.4701 14.8455C41.4701 14.7682 41.4701 14.69 41.4701 14.6105V11.0687C41.4597 10.6157 41.8185 10.2399 42.2716 10.2297C42.2768 10.2296 42.2821 10.2294 42.2873 10.2294H46.1895C46.589 10.2159 46.9017 9.88112 46.8881 9.48184C46.8881 9.4805 46.8881 9.4791 46.8881 9.47781V6.73129C46.9224 6.32652 46.6253 5.96924 46.2209 5.92948H42.3094C41.8704 5.94343 41.5032 5.59875 41.4893 5.15959C41.489 5.15321 41.4888 5.14677 41.4888 5.14033V0.733969C41.4842 0.341409 41.1624 0.0268574 40.7697 0.0313934C40.7591 0.0314494 40.748 0.0318408 40.7372 0.0325128H37.8497C37.4804 0.0100008 37.1626 0.291177 37.1399 0.660553C37.1388 0.678752 37.1384 0.697065 37.1388 0.715209C37.1388 0.715209 37.1388 14.7735 37.1388 14.8517C37.2687 19.6445 41.2591 23.4244 46.0517 23.2946C46.3618 23.2862 46.6713 23.2612 46.9787 23.2198C47.3696 23.1677 47.6476 22.8132 47.605 22.4211" fill="#0A7EC2"/>
<path d="M68.5003 18.7696C66.042 18.7696 65.6818 17.8959 65.6818 14.5887C65.6818 14.5887 65.6818 14.5669 65.6818 14.5574V6.63107C65.6834 6.21768 65.3497 5.88117 64.9364 5.87949C64.9343 5.87949 64.9323 5.87949 64.9301 5.87949H62.0363C61.6227 5.88448 61.2883 6.21757 61.2816 6.63107V7.00689C57.1112 4.64167 51.813 6.10506 49.4478 10.2756C47.0827 14.4459 48.5459 19.744 52.7164 22.1093C55.8955 23.9122 59.8631 23.5313 62.6407 21.1559C63.4582 22.4087 64.7673 23.2228 66.8121 23.2385C67.1631 23.2385 69.0044 23.3012 69.0044 22.4338V19.349C69.0175 19.0541 68.7973 18.8008 68.5034 18.7728M56.9943 18.9011C54.5973 18.9011 52.6537 16.9578 52.6537 14.5606C52.6537 12.1634 54.5973 10.2201 56.9943 10.2201C59.3915 10.2201 61.3349 12.1634 61.3349 14.5606C61.3349 16.9578 59.3915 18.9011 56.9943 18.9011Z" fill="#0A7EC2"/>
</svg>
