<svg width="38" height="38" viewBox="0 0 38 38" fill="none" xmlns="http://www.w3.org/2000/svg">
<g clip-path="url(#clip0_4233_52450)">
<path d="M8.36093 0.0456766H29.5764C34.2611 0.0117047 37.9991 3.72764 37.9991 8.43435V29.6121C37.9991 34.2434 34.2611 38.0211 29.5764 37.9814H8.36093C3.83309 37.9814 0.0390625 34.2434 0.0390625 29.6121V8.43435C0.0390625 3.72764 3.83309 -0.0416472 8.36093 0.0456766Z" fill="url(#paint0_linear_4233_52450)"/>
<path d="M32.0775 31.0688C32.0775 31.0688 30.5987 28.6739 28.1806 28.6739C25.7114 28.6739 24.4926 31.0688 19.6072 31.0688C9.00667 31.0688 3.98144 22.3471 3.8671 22.1408C3.8671 22.1999 3.92627 22.1999 3.92627 22.1999L0 18.0753V8.40379C0 3.71886 3.8272 0.0183105 8.33327 0.0183105H15.9186L21.4533 5.68809C21.4592 5.68809 21.4592 5.62892 21.5139 5.57238C34.0826 14.258 30.0303 23.6542 30.0303 23.6542C30.0303 23.6542 33.5101 27.5957 32.0775 31.069V31.0688Z" fill="url(#paint1_linear_4233_52450)"/>
<path d="M21.5764 5.65991C34.1013 14.1865 30.0555 23.6291 30.0555 23.6291C30.0555 23.6291 33.5364 27.6052 32.1115 31.0914C32.1115 31.0914 30.6305 28.6711 28.2171 28.6711C25.7982 28.6711 24.3493 31.0914 19.6327 31.0914C8.89473 31.0914 3.99023 22.1387 3.99023 22.1387C13.5145 28.6203 20.1692 24.0247 20.1692 24.0247C15.8049 21.4984 6.5175 9.58173 6.5175 9.58173C14.5422 16.3192 17.9544 18.1037 17.9544 18.1037C15.9378 16.5001 10.1938 8.17452 10.1938 8.17452C14.873 12.8215 24.0496 19.4067 24.0496 19.4067C26.5762 12.102 21.5765 5.65991 21.5765 5.65991H21.5764Z" fill="#FEFEFE"/>
</g>
<defs>
<linearGradient id="paint0_linear_4233_52450" x1="22.3867" y1="-0.109175" x2="15.6514" y2="38.0884" gradientUnits="userSpaceOnUse">
<stop stop-color="#F9B13D"/>
<stop offset="1" stop-color="#E63830"/>
</linearGradient>
<linearGradient id="paint1_linear_4233_52450" x1="19.83" y1="-0.271335" x2="14.2527" y2="31.3583" gradientUnits="userSpaceOnUse">
<stop stop-color="#E5A235"/>
<stop offset="1" stop-color="#D23629"/>
</linearGradient>
<clipPath id="clip0_4233_52450">
<rect width="38" height="38" fill="white"/>
</clipPath>
</defs>
</svg>
