<svg width="42" height="42" viewBox="0 0 42 42" fill="none" xmlns="http://www.w3.org/2000/svg">
<path d="M2.98512 21.0001C2.98512 28.1311 7.12926 34.2936 13.1386 37.2139L4.54488 13.6682C3.54526 15.9088 2.98512 18.3883 2.98512 21.0001ZM33.1627 20.091C33.1627 17.8645 32.363 16.3225 31.677 15.1224C30.7638 13.6384 29.9078 12.3817 29.9078 10.8977C29.9078 9.24161 31.1638 7.70003 32.933 7.70003C33.0129 7.70003 33.0887 7.70997 33.1665 7.71443C29.9613 4.77798 25.691 2.98512 21.0008 2.98512C14.7069 2.98512 9.16962 6.21432 5.94831 11.1054C6.37098 11.1181 6.76932 11.127 7.10767 11.127C8.99205 11.127 11.909 10.8984 11.909 10.8984C12.8801 10.8411 12.9946 12.2675 12.0245 12.3824C12.0245 12.3824 11.0485 12.4972 9.96253 12.5541L16.5231 32.0681L20.4657 20.2439L17.6588 12.5534C16.6887 12.4965 15.7696 12.3817 15.7696 12.3817C14.7988 12.3248 14.9126 10.8404 15.8834 10.8977C15.8834 10.8977 18.8586 11.1263 20.6288 11.1263C22.5129 11.1263 25.4301 10.8977 25.4301 10.8977C26.402 10.8404 26.5161 12.2668 25.5456 12.3817C25.5456 12.3817 24.5676 12.4965 23.4837 12.5534L29.9942 31.9197L31.7912 25.9148C32.57 23.423 33.1627 21.6332 33.1627 20.091ZM21.3168 22.5759L15.9115 38.2828C17.5254 38.7572 19.2322 39.0167 21.0008 39.0167C23.0987 39.0167 25.1106 38.6541 26.9834 37.9955C26.935 37.9184 26.8911 37.8365 26.8551 37.7473L21.3168 22.5759ZM36.8088 12.3567C36.8862 12.9305 36.9301 13.5465 36.9301 14.2092C36.9301 16.0373 36.5887 18.0924 35.5603 20.6621L30.0573 36.5726C35.4132 33.4493 39.0157 27.6467 39.0157 21.0004C39.0161 17.8682 38.216 14.9229 36.8088 12.3567ZM21.0008 0C9.42124 0 0 9.42055 0 21.0001C0 32.581 9.42124 42.0012 21.0008 42.0012C32.5799 42.0012 42.0026 32.581 42.0026 21.0001C42.0022 9.42055 32.5799 0 21.0008 0ZM21.0008 41.0386C9.95224 41.0386 0.962932 32.0493 0.962932 21.0001C0.962932 9.95156 9.9519 0.962932 21.0008 0.962932C32.0489 0.962932 41.0376 9.95156 41.0376 21.0001C41.0376 32.0493 32.0489 41.0386 21.0008 41.0386Z" fill="#464342"/>
</svg>
