<svg width="38" height="44" viewBox="0 0 38 44" fill="none" xmlns="http://www.w3.org/2000/svg">
<path d="M30.7188 8.54392L34.5111 7.56738L34.5394 7.60903L34.6352 30.5077L34.5111 30.6322L33.7297 30.6656L30.7632 30.2038L30.7188 30.087V8.54392Z" fill="#7A3E65"/>
<path d="M8.78516 32.2231L8.79914 32.2242L18.8098 35.133L18.8353 35.1526L18.8788 35.1873L18.8647 43.9037L18.8353 43.9408L8.78516 39.0585V32.2231Z" fill="#7A3E65"/>
<path d="M30.7185 30.0869L18.8517 32.9288L12.8936 31.4906L8.78516 32.2229L18.8353 35.1524L34.3464 30.9529L34.5109 30.6321L30.7185 30.0869Z" fill="#CFB2C1"/>
<path d="M28.8859 11.7176L28.7892 11.6074L18.9438 8.74662L18.8358 8.78827L18.7369 8.73779L3.24477 13.205L3.16016 13.3085L3.2845 13.3766L6.82731 13.8961L6.95254 13.8536L18.8193 11.0118L24.7774 12.45L28.8859 11.7176Z" fill="#512843"/>
<path d="M6.95228 35.3969L3.15989 36.3123L3.15327 36.2904L3.00391 13.4772L3.15989 13.3086L6.95228 13.8537V35.3969Z" fill="#C17B9E"/>
<path d="M12.0723 26.5474L18.8356 27.3408L18.8864 27.265L18.9139 16.6863L18.8356 16.5996L12.0723 17.3931V26.5474Z" fill="#7A3E65"/>
<path d="M25.5993 26.5474L18.8359 27.3408V16.5996L25.5993 17.3931V26.5474Z" fill="#C17B9E"/>
<path d="M28.886 11.7175L18.8359 8.78823V0L28.886 4.88223V11.7175Z" fill="#C17B9E"/>
<path d="M18.8361 0L0 9.09329V34.8474L3.16049 36.3122V13.3085L18.8361 8.78823V0Z" fill="#7A3E65"/>
<path d="M34.5116 7.56738V30.6322L18.8359 35.1524V43.9407L37.6721 34.8472V9.09311L34.5116 7.56738Z" fill="#C17B9E"/>
</svg>
