<svg width="40" height="40" viewBox="0 0 40 40" fill="none" xmlns="http://www.w3.org/2000/svg">
<path d="M40 0H0V40H40V0Z" fill="#512BD4"/>
<path d="M7.12951 25.5555C6.84669 25.5555 6.60628 25.4613 6.4083 25.2728C6.21032 25.0795 6.11133 24.8499 6.11133 24.5841C6.11133 24.3134 6.21032 24.0815 6.4083 23.8882C6.60628 23.6948 6.84669 23.5982 7.12951 23.5982C7.41706 23.5982 7.65982 23.6948 7.8578 23.8882C8.06049 24.0815 8.16185 24.3134 8.16185 24.5841C8.16185 24.8499 8.06049 25.0795 7.8578 25.2728C7.65982 25.4613 7.41706 25.5555 7.12951 25.5555ZM18.4359 25.3961H16.5975L11.7541 17.7549C11.6315 17.5616 11.5301 17.361 11.4501 17.1532H11.4076L11.4149 17.201L11.4217 17.2556L11.428 17.317L11.4338 17.3852L11.4415 17.5001L11.4481 17.6302L11.4536 17.7756L11.4579 17.9361L11.4611 18.1119L11.4626 18.2376L11.4642 18.5813V25.3961H9.83786V15H11.7965L16.4773 22.4599L16.593 22.6425L16.6674 22.7625L16.7312 22.868L16.7844 22.9591L16.814 23.0118L16.839 23.0581L16.8592 23.0979H16.8874L16.8821 23.0653L16.8721 22.9949L16.8629 22.9178L16.8545 22.8339C16.8532 22.8193 16.8519 22.8045 16.8506 22.7894L16.8435 22.6953L16.8372 22.5945L16.8318 22.4868L16.8252 22.3127L16.8205 22.1233L16.8177 21.9186L16.8167 21.6987V15H18.4359V25.3961ZM26.3554 25.3961H20.6635V15H26.1292V16.4645H22.3464V19.4078H25.8322V20.865H22.3464V23.9389H26.3554V25.3961ZM34.4447 16.4645H31.5315V25.3961H29.8486V16.4645H26.9426V15H34.4447V16.4645Z" fill="white"/>
</svg>
