<svg width="40" height="40" viewBox="0 0 40 40" fill="none" xmlns="http://www.w3.org/2000/svg">
<path d="M0 0H40V40H0V0Z" fill="#F7DF1E"/>
<path d="M10.5176 33.4268L13.5787 31.5743C14.1693 32.6214 14.7065 33.5073 15.995 33.5073C17.2302 33.5073 18.0089 33.0241 18.0089 31.1447V18.3638H21.7679V31.1979C21.7679 35.0912 19.4858 36.8633 16.1562 36.8633C13.1491 36.8633 11.4036 35.3059 10.5176 33.4265" fill="black"/>
<path d="M23.8086 33.0241L26.8693 31.252C27.675 32.5678 28.7222 33.5343 30.5748 33.5343C32.1323 33.5343 33.1255 32.7556 33.1255 31.6816C33.1255 30.3927 32.1052 29.9362 30.3868 29.1847L29.4473 28.7816C26.7352 27.6273 24.9361 26.1774 24.9361 23.1164C24.9361 20.2971 27.0841 18.1489 30.4406 18.1489C32.8303 18.1489 34.5487 18.9814 35.7837 21.1563L32.857 23.0357C32.2125 21.8812 31.5146 21.4249 30.4407 21.4249C29.3398 21.4249 28.6416 22.123 28.6416 23.0357C28.6416 24.1635 29.3398 24.62 30.9506 25.3182L31.8903 25.7209C35.0855 27.0904 36.8846 28.4864 36.8846 31.6278C36.8846 35.0112 34.2264 36.8637 30.6554 36.8637C27.1648 36.8637 24.9093 35.1991 23.8086 33.0241Z" fill="black"/>
</svg>
