<svg width="42" height="42" viewBox="0 0 42 42" fill="none" xmlns="http://www.w3.org/2000/svg">
<path d="M21 42C32.598 42 42 32.598 42 21C42 9.40202 32.598 0 21 0C9.40202 0 0 9.40202 0 21C0 32.598 9.40202 42 21 42Z" fill="#1F1F1F"/>
<path d="M18.6887 14.3765H15.9715C15.7663 14.3767 15.5695 14.4584 15.4243 14.6035C15.2792 14.7487 15.1975 14.9455 15.1973 15.1507V18.634C15.1975 18.8392 15.2792 19.036 15.4243 19.1812C15.5695 19.3263 15.7663 19.408 15.9715 19.4082H18.6887V28.1841C18.689 28.3894 18.7706 28.5861 18.9158 28.7313C19.0609 28.8764 19.2577 28.9581 19.463 28.9584H22.9462C23.1515 28.9581 23.3483 28.8764 23.4934 28.7313C23.6386 28.5861 23.7202 28.3894 23.7205 28.1841V15.1507C23.7202 14.9455 23.6386 14.7487 23.4934 14.6035C23.3483 14.4584 23.1515 14.3767 22.9462 14.3765H18.6887Z" fill="white"/>
</svg>
