<svg width="64" height="34" viewBox="0 0 64 34" fill="none" xmlns="http://www.w3.org/2000/svg">
<path d="M32 33.65C49.6731 33.65 64 26.1172 64 16.825C64 7.53281 49.6731 0 32 0C14.3269 0 0 7.53281 0 16.825C0 26.1172 14.3269 33.65 32 33.65Z" fill="url(#paint0_radial_629_16878)"/>
<path d="M32 32.4C48.9827 32.4 62.75 25.4268 62.75 16.825C62.75 8.22317 48.9827 1.25 32 1.25C15.0172 1.25 1.25 8.22317 1.25 16.825C1.25 25.4268 15.0172 32.4 32 32.4Z" fill="#6181B6"/>
<path d="M38.2243 21.8749L39.7493 14.0249C40.0993 12.2499 39.7993 10.9249 38.8993 10.0999C38.0243 9.2999 36.5243 8.8999 34.3243 8.8999H31.6743L32.4243 4.9999C32.4493 4.8499 32.4243 4.6999 32.3243 4.5749C32.2243 4.4499 32.0993 4.3999 31.9493 4.3999H28.2993C28.0493 4.3999 27.8493 4.5749 27.7993 4.7999L26.1743 13.1249C26.0243 12.1749 25.6743 11.3749 25.0743 10.7249C23.9993 9.4999 22.3243 8.8749 20.0493 8.8749H13.0243C12.7743 8.8749 12.5743 9.0499 12.5243 9.2749L9.24925 26.1749C9.22425 26.3249 9.24925 26.4749 9.34925 26.5999C9.44925 26.7249 9.57425 26.7749 9.72425 26.7749H13.3993C13.6493 26.7749 13.8493 26.5999 13.8993 26.3749L14.6993 22.2999H17.4243C18.8493 22.2999 20.0743 22.1499 20.9993 21.8499C21.9743 21.5249 22.8493 20.9999 23.6243 20.2749C24.2493 19.6999 24.7743 19.0499 25.1743 18.3499L24.5243 21.7249C24.4993 21.8749 24.5243 22.0249 24.6243 22.1499C24.7243 22.2749 24.8493 22.3249 24.9993 22.3249H28.6493C28.8993 22.3249 29.0993 22.1499 29.1493 21.9249L30.9493 12.6749H33.4493C34.5243 12.6749 34.8243 12.8749 34.9243 12.9749C34.9993 13.0499 35.1493 13.3499 34.9743 14.2749L33.5243 21.7499C33.4993 21.8999 33.5243 22.0499 33.6243 22.1749C33.7243 22.2999 33.8493 22.3499 33.9993 22.3499H37.7493C37.9743 22.2749 38.1743 22.0999 38.2243 21.8749ZM21.3243 15.3749C21.0993 16.5499 20.6743 17.3999 20.0493 17.8749C19.4243 18.3499 18.3993 18.5999 17.0493 18.5999H15.4243L16.5993 12.5499H18.6993C20.2493 12.5499 20.8743 12.8749 21.1243 13.1499C21.4493 13.5499 21.5243 14.3249 21.3243 15.3749Z" fill="white"/>
<path d="M53.8235 10.725C52.7485 9.5 51.0735 8.875 48.7985 8.875H41.7235C41.4735 8.875 41.2735 9.05 41.2235 9.275L37.9485 26.15C37.9235 26.3 37.9485 26.45 38.0485 26.575C38.1485 26.7 38.2735 26.75 38.4235 26.75H42.0985C42.3485 26.75 42.5485 26.575 42.5985 26.35L43.3985 22.275H46.1235C47.5485 22.275 48.7735 22.125 49.6985 21.825C50.6735 21.5 51.5485 20.975 52.3235 20.25C52.9735 19.65 53.5235 18.975 53.9235 18.25C54.3235 17.525 54.6235 16.725 54.7985 15.85C55.2235 13.675 54.8985 11.975 53.8235 10.725ZM49.9985 15.375C49.7735 16.55 49.3485 17.4 48.7235 17.875C48.0985 18.35 47.0735 18.6 45.7235 18.6H44.0985L45.2735 12.55H47.3735C48.9235 12.55 49.5485 12.875 49.7985 13.15C50.1485 13.55 50.2235 14.325 49.9985 15.375Z" fill="white"/>
<path d="M18.7 12.05C20.1 12.05 21.025 12.3 21.5 12.825C21.975 13.35 22.075 14.225 21.825 15.475C21.575 16.775 21.075 17.725 20.35 18.275C19.625 18.825 18.525 19.1 17.05 19.1H14.825L16.2 12.05H18.7ZM9.75 26.25H13.425L14.3 21.775H17.45C18.85 21.775 19.975 21.625 20.875 21.325C21.775 21.025 22.575 20.55 23.325 19.85C23.95 19.275 24.45 18.65 24.825 17.975C25.2 17.3 25.475 16.55 25.625 15.725C26.025 13.725 25.725 12.175 24.75 11.05C23.775 9.925 22.225 9.375 20.1 9.375H13.025L9.75 26.25Z" fill="#000004"/>
<path d="M28.3258 4.8999H31.9758L31.1008 9.3749H34.3508C36.4008 9.3749 37.8008 9.7249 38.5758 10.4499C39.3508 11.1749 39.5758 12.3249 39.2758 13.9249L37.7508 21.7749H34.0508L35.5008 14.2999C35.6758 13.4499 35.6008 12.8749 35.3258 12.5749C35.0508 12.2749 34.4258 12.0999 33.5008 12.0999H30.5758L28.7008 21.7749H25.0508L28.3258 4.8999Z" fill="#000004"/>
<path d="M47.3758 12.05C48.7758 12.05 49.7008 12.3 50.1758 12.825C50.6508 13.35 50.7508 14.225 50.5008 15.475C50.2508 16.775 49.7508 17.725 49.0258 18.275C48.3008 18.825 47.2008 19.1 45.7258 19.1H43.5008L44.8758 12.05H47.3758ZM38.4258 26.25H42.1008L42.9758 21.775H46.1258C47.5258 21.775 48.6508 21.625 49.5508 21.325C50.4508 21.025 51.2508 20.55 52.0008 19.85C52.6258 19.275 53.1258 18.65 53.5008 17.975C53.8758 17.3 54.1508 16.55 54.3008 15.725C54.7008 13.725 54.4008 12.175 53.4258 11.05C52.4508 9.925 50.9008 9.375 48.7758 9.375H41.7008L38.4258 26.25Z" fill="#000004"/>
<defs>
<radialGradient id="paint0_radial_629_16878" cx="0" cy="0" r="1" gradientUnits="userSpaceOnUse" gradientTransform="translate(19.2129 5.91693) scale(42.0238 42.0238)">
<stop stop-color="white"/>
<stop offset="0.5" stop-color="#4C6B97"/>
<stop offset="1" stop-color="#231F20"/>
</radialGradient>
</defs>
</svg>
