<svg width="40" height="40" viewBox="0 0 40 40" fill="none" xmlns="http://www.w3.org/2000/svg">
<path d="M40 0H0V40H40V0Z" fill="#BC1F27"/>
<path d="M10.8176 10.2305C10.1113 9.80817 9.45881 9.57789 7.31677 9.57789H4.00004V22.9215H6.54131V18.0078H7.93093C9.32829 18.0078 9.8733 17.8542 10.4492 17.5624C11.8235 16.8714 12.6219 15.4512 12.6219 13.6854C12.6296 12.1498 11.9923 10.9215 10.8176 10.2305ZM9.5509 15.1286C9.20535 15.6893 8.8982 15.8197 7.86181 15.8197H6.54127V11.7507H8.15353C9.22078 11.7507 9.85797 12.5031 9.85797 13.7468C9.85794 14.3763 9.76585 14.7678 9.5509 15.1286ZM4 24.1806H4.58354V29.5932H4V24.1806ZM10.6333 25.5625C10.1957 25.5625 9.83486 25.7391 9.54314 26.1076C9.23607 26.4991 9.10562 26.9293 9.10562 27.5895C9.10562 28.8946 9.71206 29.6776 10.7179 29.6776C11.1861 29.6776 11.6236 29.501 11.9463 29.1863L11.7237 28.7948C11.4703 29.0481 11.1862 29.1633 10.833 29.1633C10.4644 29.1633 10.1342 29.025 9.92698 28.6795C9.80422 28.4723 9.75814 28.1883 9.75814 27.8197V27.7276H12.023V27.6431C12.0077 26.7066 11.9233 26.3304 11.6085 25.9848C11.3704 25.7161 11.0327 25.5625 10.6333 25.5625ZM9.76585 27.267C9.7965 26.4531 10.0883 26.0461 10.6026 26.0461C10.8791 26.0461 11.1324 26.1767 11.2554 26.3919C11.3627 26.5835 11.4165 26.8447 11.4242 27.267H9.76585ZM15.4012 26.1538C15.4627 26.2918 15.4855 26.4531 15.4855 26.6144V29.5932H14.9098V26.9368C14.9098 26.5223 14.8789 26.4147 14.7792 26.2842C14.7023 26.1844 14.5489 26.1153 14.3801 26.1153C14.0882 26.1153 13.6352 26.3686 13.3743 26.668V29.5932H12.8214V26.5606C12.8214 26.0002 12.6834 25.7314 12.6834 25.7314L13.236 25.5625C13.236 25.5625 13.3665 25.8544 13.3665 26.1767C13.7428 25.7698 14.1266 25.5702 14.5105 25.5702C14.9022 25.578 15.2552 25.8082 15.4012 26.1538ZM13.3743 10.384C13.3743 9.5012 14.0653 8.79492 14.8944 8.79492C15.7083 8.79492 16.3608 9.5088 16.3608 10.384C16.3608 11.267 15.6852 11.981 14.8561 11.981C14.0499 11.981 13.3743 11.267 13.3743 10.384ZM13.6507 13.2632L16.0768 12.8561V22.9138H13.6507V13.2632ZM17.0595 25.6702H17.9961L17.8196 26.1382H17.0364V28.672C17.0364 29.1096 17.144 29.2553 17.5048 29.2553C17.666 29.2553 17.62 29.2553 17.7274 29.2017L17.8042 29.5932C17.6199 29.6931 17.5508 29.7238 17.2974 29.7238C17.1055 29.7238 16.9597 29.6853 16.8215 29.6163C16.5682 29.4857 16.4683 29.2323 16.4683 28.8331V26.1382H15.9924V25.6702H16.4683V24.1806H17.0518V25.6702H17.0595ZM8.37624 24.1806H7.80809V25.4857C7.80809 25.7698 7.81562 26.0923 7.81562 26.0923C7.6007 25.7774 7.23987 25.5933 6.83292 25.5933C6.57192 25.5933 6.36475 25.6623 6.13432 25.8389C5.63533 26.2074 5.38204 26.8217 5.38204 27.6584C5.38204 28.9099 5.91944 29.6469 6.86375 29.6469C7.28591 29.6469 7.56234 29.5165 7.8233 29.1863C7.83102 29.3938 7.90021 29.5855 7.90021 29.5855H8.48361C8.39917 29.3552 8.3762 28.9944 8.3762 28.3189V24.1806H8.37624ZM7.80037 28.5951C7.80037 28.5951 7.73122 28.7642 7.57777 28.8794C7.34745 29.0636 7.17854 29.1325 6.879 29.1325C6.54127 29.1325 6.31864 29.0021 6.14972 28.672C6.03453 28.4417 6.00388 28.1038 6.00388 27.6431C6.00388 27.0904 6.06539 26.8063 6.2342 26.507C6.38768 26.2382 6.62571 26.0999 6.90982 26.0999C7.33974 26.0999 7.60842 26.2304 7.79266 26.507V28.595L7.80037 28.5951ZM25.3589 25.6623L24.115 29.7314C23.8693 30.5221 23.5777 31.0444 22.9404 31.2055L22.7715 30.7909C23.1247 30.6681 23.3089 30.4993 23.4703 30.0692C23.4088 29.7621 23.3782 29.6239 23.3782 29.6239C23.3319 29.3706 23.1401 28.6028 23.0174 28.2113L22.2263 25.7545L22.7869 25.5472L23.5316 28.0961C23.639 28.4646 23.7465 29.0712 23.7465 29.0712H23.7619C23.7619 29.0712 23.9001 28.5644 23.9846 28.2419L24.6987 25.6623H25.3589ZM25.8502 28.8794C25.8502 28.741 25.7734 28.6872 25.6198 28.6872H25.3896V29.34H25.5049V29.0559H25.5739L25.7351 29.3323H25.8503L25.6892 29.0481C25.7889 29.0404 25.8502 28.9868 25.8502 28.8794ZM25.5125 28.9636V28.7793H25.6123C25.6736 28.7793 25.7351 28.7948 25.7351 28.8715C25.7351 28.9559 25.6735 28.9714 25.6123 28.9714H25.5125V28.9636ZM25.6046 28.4417C25.3053 28.4417 25.0595 28.7028 25.0595 29.0174C25.0595 29.3323 25.3053 29.5932 25.6046 29.5932C25.904 29.5932 26.1498 29.3323 26.1498 29.0174C26.142 28.6949 25.904 28.4417 25.6046 28.4417ZM25.6046 29.4782C25.3742 29.4782 25.1976 29.2861 25.1976 29.0174C25.1976 28.7487 25.3818 28.5568 25.6046 28.5568C25.8349 28.5568 26.0114 28.7487 26.0114 29.0174C26.0114 29.2861 25.8272 29.4782 25.6046 29.4782ZM31.478 20.4108L30.1727 20.3955C29.9193 20.3955 29.7736 20.2957 29.7736 20.1652C29.7736 19.8965 30.1189 19.6661 30.7331 19.3591C30.9174 19.3821 30.9863 19.3821 31.094 19.3821C33.0672 19.3821 34.5257 18.1538 34.5257 16.4647C34.5257 15.8121 34.3415 15.313 33.9808 14.8523C34.1266 14.8679 34.38 14.9061 34.6179 14.9061C35.286 14.9061 35.7927 14.6912 36.3224 14.1768L35.3089 12.5414C34.7485 13.0789 34.0576 13.386 33.3895 13.386C33.0826 13.386 32.7524 13.3093 32.2455 13.1709C31.5776 13.0021 31.1017 12.9252 30.5796 12.9252C28.2074 12.9252 26.664 14.2304 26.664 16.2498C26.664 17.7085 27.3166 18.6068 28.6604 18.9751C27.1326 19.3976 26.9559 19.9963 26.9559 20.6259C26.9559 21.3014 27.2246 21.7393 27.6621 21.9081C28.0997 22.1 28.8061 22.1921 29.8963 22.2151L30.9327 22.2381C31.8926 22.2536 32.6372 22.53 32.6372 23.4128C32.6372 23.8198 32.3991 24.1807 32.0383 24.411C31.6545 24.6643 31.1323 24.7334 30.5182 24.7334C29.3972 24.7334 28.7755 24.3111 28.7755 23.5204C28.7755 23.2517 28.7908 23.1213 28.8829 22.8908H26.6334C26.5413 23.0825 26.4185 23.3515 26.4185 23.889C26.4185 24.5568 26.6716 25.1327 27.1784 25.6317C28.0153 26.4609 29.3743 26.6913 30.6949 26.6913C32.1459 26.6913 33.5432 26.3457 34.3569 25.4243C34.8636 24.8485 35.1016 24.2189 35.1016 23.3899C35.1016 22.5067 34.8483 21.8315 34.3032 21.294C33.6352 20.6565 32.8906 20.4263 31.478 20.4108ZM29.1055 16.2574C29.1055 15.3361 29.6353 14.7986 30.5565 14.7986C31.4855 14.7986 32.0229 15.3361 32.0229 16.2574C32.0229 17.1633 31.5009 17.6547 30.5336 17.6547C29.6814 17.6624 29.1055 17.2631 29.1055 16.2574ZM22.1727 15.0903C21.6812 15.0903 21.0516 15.4359 20.4836 15.9734V22.9215H18.0499V15.7967C18.0499 14.9521 17.9423 14.1459 17.7274 13.4935L19.8848 12.8409C20.0997 13.2478 20.2303 13.6623 20.2303 14.0693C20.5912 13.8005 20.8982 13.5701 21.2974 13.3399C21.7889 13.0712 22.4184 12.9177 22.9635 12.9177C23.9999 12.9177 24.9059 13.4935 25.1976 14.3381C25.3283 14.6989 25.3819 15.1212 25.3819 15.7353V22.9138H22.9865V16.5184C22.9865 15.4205 22.8099 15.0903 22.1727 15.0903ZM20.9289 26.1308V28.6642C20.9289 29.1019 21.0365 29.2478 21.3974 29.2478C21.5585 29.2478 21.5123 29.2478 21.6199 29.194L21.6967 29.5855C21.5123 29.6853 21.4433 29.7161 21.1901 29.7161C20.998 29.7161 20.852 29.6776 20.7139 29.6087C20.4605 29.4782 20.3607 29.2246 20.3607 28.8254V26.1308H19.8847V25.6623H20.3607V24.1729H20.9442V25.6623H21.8579L21.6811 26.1308H20.9289ZM18.6104 25.6776L19.2015 25.578V29.5932H18.6104V25.6776Z" fill="white"/>
</svg>
