<svg width="27" height="32" viewBox="0 0 27 32" fill="none" xmlns="http://www.w3.org/2000/svg">
<g clip-path="url(#clip0_4466_52013)">
<mask id="mask0_4466_52013" style="mask-type:luminance" maskUnits="userSpaceOnUse" x="0" y="0" width="27" height="32">
<path d="M27 0H0V32H27V0Z" fill="white"/>
</mask>
<g mask="url(#mask0_4466_52013)">
<path d="M13.3393 0.000218439C12.2259 0.0052793 11.1627 0.0981698 10.2272 0.260116C7.47132 0.736429 6.97096 1.73339 6.97096 3.57197V6.00016H13.4835V6.80955H6.97096H4.52688C2.63416 6.80955 0.976852 7.9225 0.458464 10.0397C-0.139488 12.4665 -0.16601 13.9809 0.458464 16.5149C0.921399 18.4011 2.02694 19.7451 3.91965 19.7451H6.1588V16.8342C6.1588 14.7312 8.0186 12.8763 10.2272 12.8763H16.7321C18.5428 12.8763 19.9883 11.4178 19.9883 9.63871V3.57197C19.9883 1.84532 18.4994 0.548286 16.7321 0.260116C15.6134 0.0779265 14.4525 -0.00484249 13.3393 0.000218439ZM9.81736 1.95317C10.4901 1.95317 11.0393 2.49937 11.0393 3.17097C11.0393 3.8402 10.4901 4.38136 9.81736 4.38136C9.1422 4.38136 8.59529 3.8402 8.59529 3.17097C8.59529 2.49937 9.1422 1.95317 9.81736 1.95317Z" fill="url(#paint0_linear_4466_52013)"/>
<path d="M20.8002 6.80957V9.63872C20.8002 11.8322 18.8994 13.6783 16.7319 13.6783H10.227C8.44519 13.6783 6.9707 15.1702 6.9707 16.9159V22.9826C6.9707 24.7093 8.50546 25.7249 10.227 26.2203C12.2885 26.8133 14.2653 26.9204 16.7319 26.2203C18.3714 25.7559 19.9881 24.8212 19.9881 22.9826V20.5545H13.4832V19.7451H19.9881H23.2444C25.1371 19.7451 25.8424 18.4535 26.5006 16.5149C27.1805 14.5192 27.1516 12.5999 26.5006 10.0397C26.0328 8.19638 25.1394 6.80957 23.2444 6.80957H20.8002ZM17.1417 22.1733C17.8168 22.1733 18.3638 22.7145 18.3638 23.3837C18.3638 24.0553 17.8168 24.6015 17.1417 24.6015C16.469 24.6015 15.9197 24.0553 15.9197 23.3837C15.9197 22.7145 16.469 22.1733 17.1417 22.1733Z" fill="url(#paint1_linear_4466_52013)"/>
<path opacity="0.44382" d="M13.5573 32.0001C18.3773 32.0001 22.2846 31.2589 22.2846 30.3445C22.2846 29.4302 18.3773 28.689 13.5573 28.689C8.73743 28.689 4.83008 29.4302 4.83008 30.3445C4.83008 31.2589 8.73743 32.0001 13.5573 32.0001Z" fill="url(#paint2_radial_4466_52013)"/>
</g>
</g>
<defs>
<linearGradient id="paint0_linear_4466_52013" x1="-1.19995e-07" y1="-1.00962e-07" x2="14.7391" y2="12.8382" gradientUnits="userSpaceOnUse">
<stop stop-color="#5A9FD4"/>
<stop offset="1" stop-color="#306998"/>
</linearGradient>
<linearGradient id="paint1_linear_4466_52013" x1="16.9852" y1="23.1795" x2="11.7531" y2="15.6852" gradientUnits="userSpaceOnUse">
<stop stop-color="#FFD43B"/>
<stop offset="1" stop-color="#FFE873"/>
</linearGradient>
<radialGradient id="paint2_radial_4466_52013" cx="0" cy="0" r="1" gradientUnits="userSpaceOnUse" gradientTransform="translate(13.5573 30.3445) rotate(-90) scale(1.65559 7.43834)">
<stop stop-color="#B8B8B8" stop-opacity="0.498039"/>
<stop offset="1" stop-color="#7F7F7F" stop-opacity="0"/>
</radialGradient>
<clipPath id="clip0_4466_52013">
<rect width="27" height="32" fill="white"/>
</clipPath>
</defs>
</svg>
