<svg width="46" height="40" viewBox="0 0 46 40" fill="none" xmlns="http://www.w3.org/2000/svg">
<path d="M37.2935 12.9883C42.1114 14.5943 45.6801 17.2709 45.6801 19.9474C45.6801 22.8024 41.9329 25.5682 36.7582 27.2634C36.4906 27.3526 36.2229 27.4418 35.9553 27.531C36.0445 27.8879 36.1337 28.334 36.2229 28.6909C37.2043 33.8656 36.4014 38.0589 33.9924 39.4864C31.6728 40.8247 27.9256 39.4864 24.0891 36.1853C23.643 35.8284 23.2862 35.4715 22.8401 35.1147C22.5724 35.3823 22.2155 35.65 21.9479 35.9176C18.0222 39.3972 13.9182 40.8247 11.5093 39.3972C9.18956 38.0589 8.47581 34.1333 9.368 29.2262C9.54644 28.6909 9.63565 28.1556 9.72487 27.6203C9.368 27.531 8.9219 27.3526 8.56503 27.2634C3.56876 25.5682 0 22.7132 0 19.9474C0 17.2709 3.39032 14.6835 8.11893 12.9883C8.65425 12.8099 9.18956 12.6315 9.81409 12.453C9.63565 12.0069 9.54644 11.4716 9.45722 11.0255C8.47581 5.94004 9.18956 1.92519 11.5093 0.586903C13.9182 -0.840601 18.0222 0.676122 22.1263 4.24488C22.3048 4.51254 22.5724 4.69098 22.8401 4.95863C23.1969 4.60176 23.5538 4.24488 23.9107 3.97723C27.8363 0.586903 31.6728 -0.840601 33.9924 0.497684C36.4014 1.92519 37.1151 6.2077 36.0445 11.4716C35.9553 11.8285 35.866 12.1854 35.866 12.5423C36.3121 12.6315 36.7582 12.8099 37.2935 12.9883ZM25.1598 5.40473C24.8029 5.67239 24.5352 6.02926 24.1784 6.29692C25.5166 7.81364 26.7657 9.41959 27.9256 11.1147C29.9776 11.2932 31.9404 11.5608 33.9924 12.0069C34.0817 11.7393 34.0817 11.4716 34.1709 11.1147C35.1523 6.56458 34.5278 2.99582 33.011 2.19285C31.5835 1.38987 28.5501 2.4605 25.1598 5.40473ZM14.8996 24.5868C14.4535 23.7838 14.0074 23.0701 13.5613 22.2671C13.026 23.6054 12.5799 24.9437 12.1338 26.1928C13.4721 26.5496 14.8996 26.7281 16.3271 26.9065C15.7918 26.1035 15.3457 25.3898 14.8996 24.5868ZM12.1338 13.8805C12.5799 15.1296 13.026 16.3787 13.5613 17.717C14.0074 16.914 14.4535 16.2002 14.8996 15.3973C15.3457 14.6835 15.7918 13.8805 16.2379 13.1668C14.8104 13.3452 13.4721 13.5237 12.1338 13.8805ZM14.6319 20.0366C15.2565 21.1965 15.881 22.4456 16.5055 23.6054C17.2193 24.7653 17.933 25.9251 18.736 27.085C20.0743 27.1742 21.4126 27.2634 22.8401 27.2634C24.1784 27.2634 25.6059 27.1742 26.9441 27.085C27.6579 25.9251 28.3716 24.7653 29.0854 23.6054C29.7992 22.4456 30.4237 21.1965 30.959 19.9474C30.4237 18.6984 29.7099 17.5385 29.0854 16.3787C28.3716 15.2188 27.6579 14.059 26.8549 12.8991C25.6059 12.8099 24.1784 12.7207 22.8401 12.7207C21.4126 12.7207 20.0743 12.8099 18.736 12.8991C17.933 14.059 17.2193 15.2188 16.5055 16.3787C15.881 17.5385 15.1672 18.7876 14.6319 20.0366ZM30.6913 24.5868C30.2452 25.3006 29.7992 26.1035 29.3531 26.8173C30.7806 26.7281 32.1188 26.4604 33.5463 26.1035C33.1003 24.7653 32.5649 23.5162 32.0296 22.1779C31.5835 22.9809 31.2267 23.7838 30.6913 24.5868ZM32.0296 17.717C32.5649 16.4679 33.011 15.2188 33.4571 13.8805C32.2081 13.6129 30.7806 13.3452 29.3531 13.1668C29.7992 13.8805 30.2452 14.6835 30.6913 15.3973C31.1374 16.2002 31.5835 16.914 32.0296 17.717ZM22.8401 7.72442C21.9479 8.70583 21.0557 9.77646 20.1635 10.9363C21.9479 10.8471 23.7323 10.8471 25.4274 10.9363C24.6244 9.77646 23.7323 8.70583 22.8401 7.72442ZM12.4907 2.19285C11.0632 3.08504 10.5278 6.29692 11.3308 10.5794C11.42 11.1147 11.5093 11.5608 11.6877 12.0069C13.6505 11.5608 15.6133 11.2932 17.6654 11.1147C18.8252 9.41959 20.0743 7.81364 21.5018 6.29692C21.2341 6.11848 21.0557 5.94004 20.788 5.67239C17.3085 2.63894 14.0074 1.38987 12.4907 2.19285ZM10.2602 25.7467C10.8847 23.7838 11.5985 21.821 12.4907 20.0366C11.6877 18.163 10.8847 16.2894 10.3494 14.3266C9.81409 14.5051 9.27878 14.5943 8.74346 14.7727C4.72861 16.2002 1.8736 18.3415 1.8736 19.9474C2.05204 21.0181 2.67657 21.9995 3.56876 22.624C5.08548 23.8731 7.31596 24.7653 9.18956 25.3898C9.54644 25.5682 9.90331 25.6574 10.2602 25.7467ZM20.6988 34.4901C20.9665 34.2225 21.2341 33.9548 21.5018 33.6872C20.1635 32.1704 18.8252 30.5645 17.6654 28.9585C15.6133 28.7801 13.6505 28.5125 11.5985 28.0664C11.5093 28.5125 11.42 29.0478 11.3308 29.5831C10.5278 33.7764 11.0632 36.899 12.4907 37.7912C13.5613 38.1481 14.6319 38.1481 15.6133 37.6128C17.4869 36.899 19.1821 35.8284 20.6988 34.4901ZM22.8401 32.3489C23.8215 31.2782 24.7137 30.2076 25.5166 29.0478C24.6244 29.137 23.7323 29.137 22.8401 29.137C21.9479 29.137 21.0557 29.137 20.1635 29.0478C21.0557 30.2968 21.9479 31.3675 22.8401 32.3489ZM34.5278 35.0254C34.7954 33.0626 34.7062 31.0106 34.3493 29.0478C34.2601 28.6909 34.1709 28.334 34.0817 27.9771C32.0296 28.4232 30.0668 28.7801 28.0148 28.9585C26.8549 30.6537 25.6059 32.1704 24.1784 33.6872C24.6244 34.044 24.9813 34.4009 25.3382 34.7578C28.6393 37.5236 31.6728 38.5942 33.1003 37.7912C33.9032 37.0775 34.4385 36.0961 34.5278 35.0254ZM36.1337 25.3898C40.5947 23.9623 43.7173 21.6426 43.7173 19.9474C43.7173 18.3415 40.7731 16.2002 36.669 14.7727C36.2229 14.5943 35.7768 14.5051 35.3307 14.3266C34.7062 16.2894 33.9924 18.163 33.1003 19.9474C33.9924 21.821 34.7954 23.6946 35.4199 25.6574C35.6876 25.5682 35.866 25.479 36.1337 25.3898ZM22.8401 24.0515C20.5204 24.0515 18.736 22.2671 18.736 19.9474C18.736 17.717 20.5204 15.9326 22.8401 15.9326C25.0705 15.9326 26.8549 17.717 26.8549 19.9474C26.8549 22.2671 25.0705 24.0515 22.8401 24.0515Z" fill="#53C1DE"/>
</svg>
